<svg width="90" height="90" viewBox="0 0 90 90" fill="none" xmlns="http://www.w3.org/2000/svg">
<rect x="15.5237" y="86.3984" width="75.4565" height="72.9487" rx="36.4744" transform="rotate(-100 15.5237 86.3984)" stroke="black"/>
<rect x="21.5214" y="19.7682" width="10" height="11" rx="5" transform="rotate(-100 21.5214 19.7682)" fill="black"/>
<rect x="53.5214" y="24.7682" width="10" height="11" rx="5" transform="rotate(-100 53.5214 24.7682)" fill="black"/>
<rect x="67.7365" y="52.7582" width="10" height="11" rx="5" transform="rotate(-100 67.7365 52.7582)" fill="black"/>
<rect x="52.0004" y="45.2929" width="7" height="8" rx="3.5" transform="rotate(-100 52.0004 45.2929)" fill="black"/>
<rect x="33.0004" y="44.2929" width="7" height="8" rx="3.5" transform="rotate(-100 33.0004 44.2929)" fill="black"/>
<rect x="15.5214" y="43.7682" width="10" height="11" rx="5" transform="rotate(-100 15.5214 43.7682)" fill="black"/>
<path d="M43.5849 5.01006H46.7849L41.9423 25.7101L46.7849 22.8844V42.9386L43.5849 86.0101L44.6516 28.5356L38.7849 30.8902L43.5849 5.01006Z" fill="#622be2"/>
<ellipse cx="45.2849" cy="72.0101" rx="23.5" ry="14" fill="black"/>
<path d="M35.171 42.3948C26.31 48.3743 27.9734 57.892 29.9127 61.9035" stroke="black"/>
<path d="M53.9331 41.4788C63.0636 46.8597 60.0589 57.3373 57.4153 61.9035" stroke="black"/>
<rect x="33.7365" y="73.7582" width="10" height="11" rx="5" transform="rotate(-100 33.7365 73.7582)" fill="white"/>
<rect x="47.7365" y="73.7582" width="10" height="11" rx="5" transform="rotate(-100 47.7365 73.7582)" fill="white"/>
<rect x="37.8023" y="72.4269" width="4.62044" height="5.04861" rx="2.31022" transform="rotate(-100 37.8023 72.4269)" fill="black"/>
<rect x="51.8023" y="72.4269" width="4.62044" height="5.04861" rx="2.31022" transform="rotate(-100 51.8023 72.4269)" fill="black"/>
</svg>
